<svg xmlns="http://www.w3.org/2000/svg" version="1.1" width="327px" height="327px">
    <g>
        <path fill="#4f6b6b" d="M 170.5,25.5 C 165.352,24.9264 160.518,25.593 156,27.5C 155.329,26.7476 154.496,26.4142 153.5,26.5C 158.98,22.8698 164.647,22.5365 170.5,25.5 Z"/>
    </g>
    <g>
        <path fill="#0f2833" d="M 170.5,25.5 C 179.112,28.4483 184.112,34.4483 185.5,43.5C 183.141,44.3887 182.975,45.722 185,47.5C 186.85,45.0379 188.017,45.5379 188.5,49C 190.5,49.3333 192.5,49.6667 194.5,50C 193.299,50.9025 192.465,52.0692 192,53.5C 191,53.1667 190,52.8333 189,52.5C 188.833,53 188.667,53.5 188.5,54C 189.424,55.15 189.424,56.15 188.5,57C 190.271,59.1135 191.771,58.9468 193,56.5C 193.18,58.4884 193.014,60.4884 192.5,62.5C 190.833,61.8333 189.167,61.1667 187.5,60.5C 186.525,58.4872 184.858,57.1539 182.5,56.5C 181.459,58.9913 180.626,58.9913 180,56.5C 179.333,59.1667 178.667,59.1667 178,56.5C 177.363,58.3031 176.197,59.6364 174.5,60.5C 176.115,63.3536 177.115,66.5203 177.5,70C 176.5,70.6667 175.5,70.6667 174.5,70C 175.634,68.984 175.301,68.3173 173.5,68C 174.336,66.7567 174.003,65.5901 172.5,64.5C 172.167,65.1667 171.833,65.8333 171.5,66.5C 170.719,65.2713 170.219,63.938 170,62.5C 169.167,63.5 168.333,64.5 167.5,65.5C 165.395,64.962 163.062,63.962 160.5,62.5C 159.573,63.9056 158.573,65.4056 157.5,67C 159.657,68.0847 159.824,69.2513 158,70.5C 155.538,66.5651 153.538,66.8984 152,71.5C 150.476,69.1019 148.976,66.7686 147.5,64.5C 145.25,62.756 143.083,60.756 141,58.5C 139.028,60.2318 136.861,61.5652 134.5,62.5C 132.436,62.2381 131.103,61.0714 130.5,59C 130.833,58.6667 131.167,58.3333 131.5,58C 130.682,56.8229 129.682,55.4896 128.5,54C 129.414,52.5936 130.08,51.0936 130.5,49.5C 132.917,46.7798 135.917,44.7798 139.5,43.5C 141.392,37.4338 144.726,32.2671 149.5,28C 150.745,27.2086 152.078,26.7086 153.5,26.5C 154.496,26.4142 155.329,26.7476 156,27.5C 160.518,25.593 165.352,24.9264 170.5,25.5 Z M 171.5,45.5 C 171.599,48.2372 171.265,50.9039 170.5,53.5C 167.11,56.9638 163.11,57.9638 158.5,56.5C 157.5,54.8333 156.167,53.5 154.5,52.5C 154.5,52.1667 154.5,51.8333 154.5,51.5C 154.401,48.7628 154.735,46.0961 155.5,43.5C 159.514,38.7829 164.18,38.2829 169.5,42C 170.305,43.1127 170.972,44.2794 171.5,45.5 Z"/>
    </g>
    <g>
        <path fill="#8aa4b1" d="M 155.5,43.5 C 154.735,46.0961 154.401,48.7628 154.5,51.5C 153.848,50.5514 153.514,49.3847 153.5,48C 153.307,45.9919 153.974,44.4919 155.5,43.5 Z"/>
    </g>
    <g>
        <path fill="#203c45" d="M 185.5,43.5 C 191.273,45.8882 196.607,49.0548 201.5,53C 198.707,56.1051 196.04,59.2717 193.5,62.5C 193.167,62.5 192.833,62.5 192.5,62.5C 193.014,60.4884 193.18,58.4884 193,56.5C 191.771,58.9468 190.271,59.1135 188.5,57C 189.424,56.15 189.424,55.15 188.5,54C 188.667,53.5 188.833,53 189,52.5C 190,52.8333 191,53.1667 192,53.5C 192.465,52.0692 193.299,50.9025 194.5,50C 192.5,49.6667 190.5,49.3333 188.5,49C 188.017,45.5379 186.85,45.0379 185,47.5C 182.975,45.722 183.141,44.3887 185.5,43.5 Z"/>
    </g>
    <g>
        <path fill="#4b686d" d="M 171.5,45.5 C 172.156,46.6216 172.489,47.9549 172.5,49.5C 172.415,51.3328 171.748,52.6661 170.5,53.5C 171.265,50.9039 171.599,48.2372 171.5,45.5 Z"/>
    </g>
    <g>
        <path fill="#87a1a3" d="M 154.5,52.5 C 156.167,53.5 157.5,54.8333 158.5,56.5C 156.167,56.1667 154.833,54.8333 154.5,52.5 Z"/>
    </g>
    <g>
        <path fill="#415a63" d="M 130.5,49.5 C 130.08,51.0936 129.414,52.5936 128.5,54C 129.682,55.4896 130.682,56.8229 131.5,58C 131.167,58.3333 130.833,58.6667 130.5,59C 131.103,61.0714 132.436,62.2381 134.5,62.5C 133.828,63.2674 132.995,63.9341 132,64.5C 130.094,60.101 127.594,56.101 124.5,52.5C 126.243,50.9617 128.243,49.9617 130.5,49.5 Z"/>
    </g>
    <g>
        <path fill="#3e555c" d="M 115.5,60.5 C 112.711,61.1043 110.044,60.4376 107.5,58.5C 105.793,58.7284 104.126,59.0617 102.5,59.5C 102.611,58.8826 102.944,58.3826 103.5,58C 106.5,57.3333 109.5,57.3333 112.5,58C 113.942,58.3768 114.942,59.2101 115.5,60.5 Z"/>
    </g>
    <g>
        <path fill="#122c35" d="M 187.5,60.5 C 186.262,59.5876 184.928,59.4209 183.5,60C 181.74,62.0292 180.573,64.1959 180,66.5C 188.986,72.3992 197.819,78.3992 206.5,84.5C 206.56,85.0431 206.893,85.3764 207.5,85.5C 208.452,83.9547 208.785,82.288 208.5,80.5C 207.534,75.1839 207.034,69.8506 207,64.5C 208.434,59.45 211.767,57.1166 217,57.5C 223.216,57.7117 227.05,60.8784 228.5,67C 235.772,71.2744 242.772,75.9411 249.5,81C 253.012,80.95 256.512,80.45 260,79.5C 261.385,79.5143 262.551,79.8476 263.5,80.5C 258.669,80.664 254.003,81.664 249.5,83.5C 247.595,82.935 245.929,81.935 244.5,80.5C 243.692,80.8076 243.025,81.3076 242.5,82C 243.152,84.0905 243.319,86.2571 243,88.5C 245.734,89.3617 245.901,90.195 243.5,91C 244.885,92.9645 244.718,94.7979 243,96.5C 242.501,100.152 242.335,103.818 242.5,107.5C 239.89,102.611 239.89,97.6112 242.5,92.5C 242.027,91.0937 241.027,90.427 239.5,90.5C 237.973,90.573 236.973,89.9063 236.5,88.5C 236.027,87.0937 235.027,86.427 233.5,86.5C 233.027,85.0937 232.027,84.427 230.5,84.5C 230.027,83.0937 229.027,82.427 227.5,82.5C 226.738,80.7376 225.404,79.7376 223.5,79.5C 222.828,78.7326 221.995,78.0659 221,77.5C 220.185,82.3522 220.352,87.0189 221.5,91.5C 222.06,94.2745 223.727,96.1078 226.5,97C 226.38,99.8985 225.047,102.565 222.5,105C 223.5,105.333 224.5,105.667 225.5,106C 223.939,106.318 222.772,107.151 222,108.5C 221.667,108.167 221.333,107.833 221,107.5C 219.951,109.107 218.451,109.773 216.5,109.5C 216.629,111.216 216.962,112.883 217.5,114.5C 213.465,117.857 209.132,120.857 204.5,123.5C 202.549,123.227 201.049,123.893 200,125.5C 197.149,120.429 192.983,118.429 187.5,119.5C 187.833,118.833 188.167,118.167 188.5,117.5C 190.749,116.92 192.415,115.587 193.5,113.5C 196.627,110.102 200.293,107.435 204.5,105.5C 208.808,104.321 209.141,102.987 205.5,101.5C 205.027,100.094 204.027,99.427 202.5,99.5C 202.027,98.0937 201.027,97.427 199.5,97.5C 187.223,89.8848 175.223,81.8848 163.5,73.5C 162.189,70.8669 160.689,70.8669 159,73.5C 158.667,73.1667 158.333,72.8333 158,72.5C 157.59,73.9007 157.09,75.234 156.5,76.5C 152.465,79.8573 148.132,82.8573 143.5,85.5C 141.919,84.4209 140.253,84.4209 138.5,85.5C 135.282,87.6994 132.116,90.0328 129,92.5C 126.638,90.9838 124.138,89.6505 121.5,88.5C 120.269,87.3493 120.269,86.1827 121.5,85C 124.573,84.9502 127.573,84.1168 130.5,82.5C 129.975,81.8076 129.308,81.3076 128.5,81C 131.717,79.2845 134.05,76.7845 135.5,73.5C 139.5,70.5 143.5,67.5 147.5,64.5C 148.976,66.7686 150.476,69.1019 152,71.5C 153.538,66.8984 155.538,66.5651 158,70.5C 159.824,69.2513 159.657,68.0847 157.5,67C 158.573,65.4056 159.573,63.9056 160.5,62.5C 163.062,63.962 165.395,64.962 167.5,65.5C 168.333,64.5 169.167,63.5 170,62.5C 170.219,63.938 170.719,65.2713 171.5,66.5C 171.833,65.8333 172.167,65.1667 172.5,64.5C 174.003,65.5901 174.336,66.7567 173.5,68C 175.301,68.3173 175.634,68.984 174.5,70C 175.5,70.6667 176.5,70.6667 177.5,70C 177.115,66.5203 176.115,63.3536 174.5,60.5C 176.197,59.6364 177.363,58.3031 178,56.5C 178.667,59.1667 179.333,59.1667 180,56.5C 180.626,58.9913 181.459,58.9913 182.5,56.5C 184.858,57.1539 186.525,58.4872 187.5,60.5 Z"/>
    </g>
    <g>
        <path fill="#768a90" d="M 102.5,59.5 C 101.833,60.8333 100.833,61.8333 99.5,62.5C 99.5,60.5 100.5,59.5 102.5,59.5 Z"/>
    </g>
    <g>
        <path fill="#789393" d="M 187.5,60.5 C 189.167,61.1667 190.833,61.8333 192.5,62.5C 192.833,62.5 193.167,62.5 193.5,62.5C 190.92,64.0156 188.92,63.3489 187.5,60.5 Z"/>
    </g>
    <g>
        <path fill="#75888b" d="M 98.5,64.5 C 98.9118,66.9726 97.9118,68.3059 95.5,68.5C 96.5116,67.1283 97.5116,65.795 98.5,64.5 Z"/>
    </g>
    <g>
        <path fill="#435e67" d="M 163.5,73.5 C 160.962,74.0427 158.628,75.0427 156.5,76.5C 157.09,75.234 157.59,73.9007 158,72.5C 158.333,72.8333 158.667,73.1667 159,73.5C 160.689,70.8669 162.189,70.8669 163.5,73.5 Z"/>
    </g>
    <g>
        <path fill="#91a0ad" d="M 117.5,63.5 C 118.167,70.5 118.833,77.5 119.5,84.5C 119.44,85.0431 119.107,85.3764 118.5,85.5C 117.503,78.1968 117.169,70.8635 117.5,63.5 Z"/>
    </g>
    <g>
        <path fill="#71899c" d="M 223.5,79.5 C 225.404,79.7376 226.738,80.7376 227.5,82.5C 225.596,82.2624 224.262,81.2624 223.5,79.5 Z"/>
    </g>
    <g>
        <path fill="#122b34" d="M 80.5,78.5 C 85.4363,78.941 85.7697,80.441 81.5,83C 82.1667,83.3333 82.8333,83.6667 83.5,84C 81.4081,86.7503 79.4081,88.9169 77.5,90.5C 79.2914,91.1698 80.9581,91.8365 82.5,92.5C 80.2779,92.9748 79.6112,93.9748 80.5,95.5C 81.455,97.2835 82.1217,99.2835 82.5,101.5C 81.4467,104.131 80.9467,106.798 81,109.5C 92.1453,117.976 103.312,126.309 114.5,134.5C 115.956,136.284 116.956,138.284 117.5,140.5C 117.267,143.542 116.267,146.208 114.5,148.5C 113.483,151.744 112.15,154.744 110.5,157.5C 109.5,157.167 108.833,156.5 108.5,155.5C 108.027,154.094 107.027,153.427 105.5,153.5C 105.027,152.094 104.027,151.427 102.5,151.5C 100.566,150.89 98.8993,149.89 97.5,148.5C 97.1583,147.662 96.4916,147.328 95.5,147.5C 96.9187,146.549 98.5853,146.216 100.5,146.5C 100.066,149.166 101.066,150.333 103.5,150C 105.792,148.71 107.792,147.043 109.5,145C 107.519,144.395 107.185,143.395 108.5,142C 107.333,141.5 106.5,140.667 106,139.5C 105.085,140.328 104.419,141.328 104,142.5C 102.149,140.219 100.482,140.219 99,142.5C 96.5175,140.74 96.0175,138.573 97.5,136C 96.2513,134.176 95.0847,134.343 94,136.5C 93.6232,135.058 92.7899,134.058 91.5,133.5C 90.8333,133.167 90.1667,132.833 89.5,132.5C 85.2934,130.565 81.6267,127.898 78.5,124.5C 78.0269,123.094 77.0269,122.427 75.5,122.5C 75.0269,121.094 74.0269,120.427 72.5,120.5C 62.9094,123.254 54.576,121.254 47.5,114.5C 45.9617,112.757 44.9617,110.757 44.5,108.5C 43.2388,103.175 43.2388,97.842 44.5,92.5C 44.3284,91.5084 44.6618,90.8417 45.5,90.5C 46.9063,90.0269 47.573,89.0269 47.5,87.5C 54.7685,79.1878 63.4352,77.5212 73.5,82.5C 75.7254,80.89 78.0587,79.5566 80.5,78.5 Z M 64.5,95.5 C 65.1667,96.8333 66.1667,97.8333 67.5,98.5C 67.5,100.167 67.5,101.833 67.5,103.5C 66.1667,104.167 65.1667,105.167 64.5,106.5C 62.7839,106.371 61.1172,106.038 59.5,105.5C 55.828,99.5589 57.4947,96.2255 64.5,95.5 Z"/>
    </g>
    <g>
        <path fill="#c6d5de" d="M 208.5,80.5 C 208.785,82.288 208.452,83.9547 207.5,85.5C 206.893,85.3764 206.56,85.0431 206.5,84.5C 207.167,83.1667 207.833,81.8333 208.5,80.5 Z"/>
    </g>
    <g>
        <path fill="#102933" d="M 263.5,80.5 C 274.329,82.8446 279.995,89.6779 280.5,101C 279.682,111.309 274.349,117.809 264.5,120.5C 259.511,120.96 254.844,119.96 250.5,117.5C 249.614,118.325 249.281,119.325 249.5,120.5C 248.127,120.343 246.793,120.51 245.5,121C 245.381,122.145 245.048,123.312 244.5,124.5C 244.5,125.167 244.167,125.5 243.5,125.5C 242.178,125.67 241.011,125.337 240,124.5C 239.59,125.901 239.09,127.234 238.5,128.5C 236.45,130.547 234.117,132.214 231.5,133.5C 230.957,133.56 230.624,133.893 230.5,134.5C 233.768,135.487 237.102,135.82 240.5,135.5C 240.827,140.544 240.494,145.544 239.5,150.5C 236.037,154.031 234.204,158.364 234,163.5C 233.254,158.958 233.421,154.458 234.5,150C 234.138,148.775 233.638,147.609 233,146.5C 232.29,147.973 231.124,148.64 229.5,148.5C 228.038,147.529 226.705,147.862 225.5,149.5C 223.025,152.241 220.025,154.241 216.5,155.5C 214.833,155.5 213.167,155.5 211.5,155.5C 211.829,152.772 211.163,150.438 209.5,148.5C 208.27,146.703 207.604,144.703 207.5,142.5C 206.962,140.883 206.629,139.216 206.5,137.5C 217.699,128.146 229.365,119.313 241.5,111C 242.337,109.989 242.67,108.822 242.5,107.5C 242.335,103.818 242.501,100.152 243,96.5C 244.718,94.7979 244.885,92.9645 243.5,91C 245.901,90.195 245.734,89.3617 243,88.5C 243.319,86.2571 243.152,84.0905 242.5,82C 243.025,81.3076 243.692,80.8076 244.5,80.5C 245.929,81.935 247.595,82.935 249.5,83.5C 254.003,81.664 258.669,80.664 263.5,80.5 Z M 265.5,98.5 C 265.483,100.565 265.15,102.565 264.5,104.5C 260.624,106.258 257.29,105.592 254.5,102.5C 255.773,94.9265 259.439,93.5932 265.5,98.5 Z"/>
    </g>
    <g>
        <path fill="#859cb0" d="M 223.5,79.5 C 221.577,83.0293 220.911,87.0293 221.5,91.5C 220.352,87.0189 220.185,82.3522 221,77.5C 221.995,78.0659 222.828,78.7326 223.5,79.5 Z"/>
    </g>
    <g>
        <path fill="#7b919e" d="M 227.5,82.5 C 229.027,82.427 230.027,83.0937 230.5,84.5C 228.973,84.573 227.973,83.9063 227.5,82.5 Z"/>
    </g>
    <g>
        <path fill="#6f898f" d="M 230.5,84.5 C 232.027,84.427 233.027,85.0937 233.5,86.5C 231.973,86.573 230.973,85.9063 230.5,84.5 Z"/>
    </g>
    <g>
        <path fill="#6e898e" d="M 233.5,86.5 C 235.027,86.427 236.027,87.0937 236.5,88.5C 234.973,88.573 233.973,87.9063 233.5,86.5 Z"/>
    </g>
    <g>
        <path fill="#6d8086" d="M 47.5,87.5 C 47.573,89.0269 46.9063,90.0269 45.5,90.5C 45.427,88.9731 46.0937,87.9731 47.5,87.5 Z"/>
    </g>
    <g>
        <path fill="#132c36" d="M 115.5,60.5 C 116.906,60.9731 117.573,61.9731 117.5,63.5C 117.169,70.8635 117.503,78.1968 118.5,85.5C 119.107,85.3764 119.44,85.0431 119.5,84.5C 124.278,80.0599 129.612,76.3932 135.5,73.5C 134.05,76.7845 131.717,79.2845 128.5,81C 129.308,81.3076 129.975,81.8076 130.5,82.5C 127.573,84.1168 124.573,84.9502 121.5,85C 120.269,86.1827 120.269,87.3493 121.5,88.5C 124.138,89.6505 126.638,90.9838 129,92.5C 132.116,90.0328 135.282,87.6994 138.5,85.5C 140.253,84.4209 141.919,84.4209 143.5,85.5C 141.178,87.664 138.511,89.3307 135.5,90.5C 133.973,90.427 132.973,91.0937 132.5,92.5C 130.973,92.427 129.973,93.0937 129.5,94.5C 127.973,94.427 126.973,95.0937 126.5,96.5C 123.921,99.1348 120.921,101.301 117.5,103C 124.167,108.333 130.833,113.667 137.5,119C 135.804,120.176 134.138,121.343 132.5,122.5C 130.596,122.738 129.262,123.738 128.5,125.5C 128.167,126.5 127.5,127.167 126.5,127.5C 125.609,126.89 124.609,126.557 123.5,126.5C 119.293,124.565 115.627,121.898 112.5,118.5C 112.027,117.094 111.027,116.427 109.5,116.5C 102.542,112.345 95.875,107.679 89.5,102.5C 94.1675,98.6726 99.0008,95.0059 104,91.5C 104.277,87.5272 104.444,83.6938 104.5,80C 102.934,79.7003 101.601,80.2003 100.5,81.5C 98.9731,81.427 97.9731,82.0937 97.5,83.5C 97.1583,84.3382 96.4916,84.6716 95.5,84.5C 93.9731,84.427 92.9731,85.0937 92.5,86.5C 90.9731,86.427 89.9731,87.0937 89.5,88.5C 87.7952,90.1921 85.7952,91.5254 83.5,92.5C 83.1667,92.5 82.8333,92.5 82.5,92.5C 80.9581,91.8365 79.2914,91.1698 77.5,90.5C 79.4081,88.9169 81.4081,86.7503 83.5,84C 82.8333,83.6667 82.1667,83.3333 81.5,83C 85.7697,80.441 85.4363,78.941 80.5,78.5C 84.9756,74.4254 89.9756,71.0921 95.5,68.5C 97.9118,68.3059 98.9118,66.9726 98.5,64.5C 98.3284,63.5084 98.6618,62.8417 99.5,62.5C 100.833,61.8333 101.833,60.8333 102.5,59.5C 104.126,59.0617 105.793,58.7284 107.5,58.5C 110.044,60.4376 112.711,61.1043 115.5,60.5 Z"/>
    </g>
    <g>
        <path fill="#b4c8ca" d="M 92.5,86.5 C 92.0269,87.9063 91.0269,88.573 89.5,88.5C 89.9731,87.0937 90.9731,86.427 92.5,86.5 Z"/>
    </g>
    <g>
        <path fill="#a9c2c4" d="M 95.5,84.5 C 95.0269,85.9063 94.0269,86.573 92.5,86.5C 92.9731,85.0937 93.9731,84.427 95.5,84.5 Z"/>
    </g>
    <g>
        <path fill="#b5c8ce" d="M 100.5,81.5 C 100.027,82.9063 99.0269,83.573 97.5,83.5C 97.9731,82.0937 98.9731,81.427 100.5,81.5 Z"/>
    </g>
    <g>
        <path fill="#abbebe" d="M 135.5,90.5 C 135.027,91.9063 134.027,92.573 132.5,92.5C 132.973,91.0937 133.973,90.427 135.5,90.5 Z"/>
    </g>
    <g>
        <path fill="#758d93" d="M 239.5,90.5 C 241.027,90.427 242.027,91.0937 242.5,92.5C 240.973,92.573 239.973,91.9063 239.5,90.5 Z"/>
    </g>
    <g>
        <path fill="#aec1c2" d="M 132.5,92.5 C 132.027,93.9063 131.027,94.573 129.5,94.5C 129.973,93.0937 130.973,92.427 132.5,92.5 Z"/>
    </g>
    <g>
        <path fill="#8fa6aa" d="M 82.5,92.5 C 82.8333,92.5 83.1667,92.5 83.5,92.5C 82.6935,93.7281 81.6935,94.7281 80.5,95.5C 79.6112,93.9748 80.2779,92.9748 82.5,92.5 Z"/>
    </g>
    <g>
        <path fill="#839ca7" d="M 64.5,95.5 C 66.5,95.5 67.5,96.5 67.5,98.5C 66.1667,97.8333 65.1667,96.8333 64.5,95.5 Z"/>
    </g>
    <g>
        <path fill="#b0c4c8" d="M 129.5,94.5 C 129.027,95.9063 128.027,96.573 126.5,96.5C 126.973,95.0937 127.973,94.427 129.5,94.5 Z"/>
    </g>
    <g>
        <path fill="#8a979f" d="M 44.5,92.5 C 43.2388,97.842 43.2388,103.175 44.5,108.5C 42.9666,106.366 42.2999,103.866 42.5,101C 42.3603,97.8502 43.027,95.0169 44.5,92.5 Z"/>
    </g>
    <g>
        <path fill="#122935" d="M 173.5,96.5 C 174.598,97.397 174.598,98.2303 173.5,99C 175.126,98.8047 176.793,98.8047 178.5,99C 177.214,103.165 177.214,107.332 178.5,111.5C 174.19,110.92 169.857,110.586 165.5,110.5C 159.718,110.85 154.052,111.85 148.5,113.5C 146.239,112.905 144.572,111.571 143.5,109.5C 143.461,108.417 143.127,107.417 142.5,106.5C 145.044,104.608 145.044,102.775 142.5,101C 145.859,99.3878 149.192,97.8878 152.5,96.5C 159.398,93.8801 166.398,93.8801 173.5,96.5 Z"/>
    </g>
    <g>
        <path fill="#7f959e" d="M 199.5,97.5 C 201.027,97.427 202.027,98.0937 202.5,99.5C 200.973,99.573 199.973,98.9063 199.5,97.5 Z"/>
    </g>
    <g>
        <path fill="#27464e" d="M 221.5,91.5 C 225.798,94.4633 229.798,97.7966 233.5,101.5C 228.752,106.584 223.419,110.917 217.5,114.5C 216.962,112.883 216.629,111.216 216.5,109.5C 218.451,109.773 219.951,109.107 221,107.5C 221.333,107.833 221.667,108.167 222,108.5C 222.772,107.151 223.939,106.318 225.5,106C 224.5,105.667 223.5,105.333 222.5,105C 225.047,102.565 226.38,99.8985 226.5,97C 223.727,96.1078 222.06,94.2745 221.5,91.5 Z"/>
    </g>
    <g>
        <path fill="#a0b6c1" d="M 265.5,98.5 C 266.139,99.0968 266.472,99.9302 266.5,101C 266.613,102.699 265.947,103.866 264.5,104.5C 265.15,102.565 265.483,100.565 265.5,98.5 Z"/>
    </g>
    <g>
        <path fill="#869ba7" d="M 202.5,99.5 C 204.027,99.427 205.027,100.094 205.5,101.5C 203.973,101.573 202.973,100.906 202.5,99.5 Z"/>
    </g>
    <g>
        <path fill="#2d4550" d="M 152.5,96.5 C 149.192,97.8878 145.859,99.3878 142.5,101C 145.044,102.775 145.044,104.608 142.5,106.5C 143.127,107.417 143.461,108.417 143.5,109.5C 141.006,107.401 138.673,105.068 136.5,102.5C 141.31,99.1187 146.643,97.1187 152.5,96.5 Z"/>
    </g>
    <g>
        <path fill="#253e47" d="M 173.5,96.5 C 178.836,97.6684 183.836,99.6684 188.5,102.5C 185.769,106.234 182.436,109.234 178.5,111.5C 177.214,107.332 177.214,103.165 178.5,99C 176.793,98.8047 175.126,98.8047 173.5,99C 174.598,98.2303 174.598,97.397 173.5,96.5 Z"/>
    </g>
    <g>
        <path fill="#8c9ca5" d="M 205.5,101.5 C 209.141,102.987 208.808,104.321 204.5,105.5C 206.138,104.295 206.471,102.962 205.5,101.5 Z"/>
    </g>
    <g>
        <path fill="#748e92" d="M 67.5,103.5 C 67.5,105.5 66.5,106.5 64.5,106.5C 65.1667,105.167 66.1667,104.167 67.5,103.5 Z"/>
    </g>
    <g>
        <path fill="#a8bfc8" d="M 254.5,102.5 C 257.29,105.592 260.624,106.258 264.5,104.5C 264.389,105.117 264.056,105.617 263.5,106C 261.167,106.667 258.833,106.667 256.5,106C 255.177,105.184 254.511,104.017 254.5,102.5 Z"/>
    </g>
    <g>
        <path fill="#718f97" d="M 59.5,105.5 C 61.1172,106.038 62.7839,106.371 64.5,106.5C 62.5453,107.93 60.8786,107.597 59.5,105.5 Z"/>
    </g>
    <g>
        <path fill="#51676f" d="M 165.5,110.5 C 169.857,110.586 174.19,110.92 178.5,111.5C 178.189,112.478 177.522,113.145 176.5,113.5C 172.781,112.222 169.114,111.222 165.5,110.5 Z"/>
    </g>
    <g>
        <path fill="#536e74" d="M 193.5,113.5 C 192.415,115.587 190.749,116.92 188.5,117.5C 189.585,115.413 191.251,114.08 193.5,113.5 Z"/>
    </g>
    <g>
        <path fill="#6e8992" d="M 109.5,116.5 C 111.027,116.427 112.027,117.094 112.5,118.5C 110.973,118.573 109.973,117.906 109.5,116.5 Z"/>
    </g>
    <g>
        <path fill="#758d94" d="M 188.5,117.5 C 188.167,118.167 187.833,118.833 187.5,119.5C 185.207,118.699 185.54,118.032 188.5,117.5 Z"/>
    </g>
    <g>
        <path fill="#526e77" d="M 264.5,120.5 C 260.319,121.91 256.153,121.576 252,119.5C 249.6,121.415 247.1,123.081 244.5,124.5C 245.048,123.312 245.381,122.145 245.5,121C 246.793,120.51 248.127,120.343 249.5,120.5C 249.281,119.325 249.614,118.325 250.5,117.5C 254.844,119.96 259.511,120.96 264.5,120.5 Z"/>
    </g>
    <g>
        <path fill="#7f9da0" d="M 72.5,120.5 C 74.0269,120.427 75.0269,121.094 75.5,122.5C 73.9731,122.573 72.9731,121.906 72.5,120.5 Z"/>
    </g>
    <g>
        <path fill="#7b919b" d="M 75.5,122.5 C 77.0269,122.427 78.0269,123.094 78.5,124.5C 76.9731,124.573 75.9731,123.906 75.5,122.5 Z"/>
    </g>
    <g>
        <path fill="#263e49" d="M 204.5,123.5 C 202.41,125.39 200.077,127.057 197.5,128.5C 194.769,124.766 191.436,121.766 187.5,119.5C 192.983,118.429 197.149,120.429 200,125.5C 201.049,123.893 202.549,123.227 204.5,123.5 Z"/>
    </g>
    <g>
        <path fill="#aec4cb" d="M 132.5,122.5 C 131.738,124.262 130.404,125.262 128.5,125.5C 129.262,123.738 130.596,122.738 132.5,122.5 Z"/>
    </g>
    <g>
        <path fill="#516e76" d="M 243.5,125.5 C 242.101,126.89 240.434,127.89 238.5,128.5C 239.09,127.234 239.59,125.901 240,124.5C 241.011,125.337 242.178,125.67 243.5,125.5 Z"/>
    </g>
    <g>
        <path fill="#839d9e" d="M 123.5,126.5 C 124.609,126.557 125.609,126.89 126.5,127.5C 125.221,128.715 124.221,128.382 123.5,126.5 Z"/>
    </g>
    <g>
        <path fill="#354d4d" d="M 174.5,126.5 C 167.841,125.778 161.175,125.611 154.5,126C 151.867,126.423 149.701,127.59 148,129.5C 147.329,128.748 146.496,128.414 145.5,128.5C 147.858,126.871 150.524,125.705 153.5,125C 159.5,124.333 165.5,124.333 171.5,125C 172.737,125.232 173.737,125.732 174.5,126.5 Z"/>
    </g>
    <g>
        <path fill="#102933" d="M 174.5,126.5 C 175.791,126.263 176.791,126.596 177.5,127.5C 177.987,128.473 178.487,129.473 179,130.5C 180.299,130.034 181.799,130.034 183.5,130.5C 184.539,132.531 186.205,133.864 188.5,134.5C 188.738,136.404 189.738,137.738 191.5,138.5C 194.502,141.161 196.502,144.495 197.5,148.5C 197.41,151.152 198.076,153.485 199.5,155.5C 202.268,168.864 198.601,180.198 188.5,189.5C 187.069,189.119 186.236,188.119 186,186.5C 185.07,189.302 183.903,191.969 182.5,194.5C 181.341,196.25 179.674,197.25 177.5,197.5C 176.127,197.657 174.793,197.49 173.5,197C 174.517,195.951 174.684,194.784 174,193.5C 172.933,194.191 171.766,194.691 170.5,195C 173.33,197.644 172.996,198.478 169.5,197.5C 165.759,199.331 161.759,199.997 157.5,199.5C 153.485,198.488 149.485,197.488 145.5,196.5C 145.027,195.094 144.027,194.427 142.5,194.5C 141.415,192.413 139.749,191.08 137.5,190.5C 132.193,187.201 128.86,182.534 127.5,176.5C 127.405,174.214 126.738,172.214 125.5,170.5C 124.167,165.167 124.167,159.833 125.5,154.5C 126.924,152.485 127.59,150.152 127.5,147.5C 131.021,138.769 137.021,132.436 145.5,128.5C 146.496,128.414 147.329,128.748 148,129.5C 149.701,127.59 151.867,126.423 154.5,126C 161.175,125.611 167.841,125.778 174.5,126.5 Z M 184.5,158.5 C 184.731,162.993 184.064,167.326 182.5,171.5C 181.89,172.391 181.557,173.391 181.5,174.5C 179.167,176.167 177.167,178.167 175.5,180.5C 159.431,188.31 147.931,183.977 141,167.5C 139.782,148.717 148.616,139.884 167.5,141C 176.12,144.118 181.787,149.951 184.5,158.5 Z"/>
    </g>
    <g>
        <path fill="#586f7c" d="M 177.5,127.5 C 179.819,127.992 181.819,128.992 183.5,130.5C 181.799,130.034 180.299,130.034 179,130.5C 178.487,129.473 177.987,128.473 177.5,127.5 Z"/>
    </g>
    <g>
        <path fill="#8093a1" d="M 183.5,130.5 C 185.754,131.124 187.421,132.457 188.5,134.5C 186.205,133.864 184.539,132.531 183.5,130.5 Z"/>
    </g>
    <g>
        <path fill="#a8b7ba" d="M 89.5,132.5 C 90.1667,132.833 90.8333,133.167 91.5,133.5C 88.8774,135.265 85.8774,135.932 82.5,135.5C 85.0783,135.02 87.4116,134.02 89.5,132.5 Z"/>
    </g>
    <g>
        <path fill="#8598ac" d="M 188.5,134.5 C 190.262,135.262 191.262,136.596 191.5,138.5C 189.738,137.738 188.738,136.404 188.5,134.5 Z"/>
    </g>
    <g>
        <path fill="#506b6e" d="M 50.5,133.5 C 55.8333,133.5 61.1667,133.5 66.5,133.5C 66.7038,138.288 66.7038,142.954 66.5,147.5C 61.544,148.494 56.544,148.827 51.5,148.5C 51.3867,143.482 51.0534,138.482 50.5,133.5 Z"/>
    </g>
    <g>
        <path fill="#082633" d="M 52.5,134.5 C 56.8333,134.5 61.1667,134.5 65.5,134.5C 65.5,138.833 65.5,143.167 65.5,147.5C 61.1667,147.5 56.8333,147.5 52.5,147.5C 52.5,143.167 52.5,138.833 52.5,134.5 Z"/>
    </g>
    <g>
        <path fill="#5b7679" d="M 114.5,134.5 C 116.544,135.031 118.211,136.198 119.5,138C 118.934,138.995 118.267,139.828 117.5,140.5C 116.956,138.284 115.956,136.284 114.5,134.5 Z"/>
    </g>
    <g>
        <path fill="#658082" d="M 206.5,137.5 C 206.629,139.216 206.962,140.883 207.5,142.5C 206.035,141.594 205.035,140.261 204.5,138.5C 204.957,137.702 205.624,137.369 206.5,137.5 Z"/>
    </g>
    <g>
        <path fill="#566d71" d="M 231.5,133.5 C 234.962,134.482 238.629,134.815 242.5,134.5C 242.5,141.167 242.5,147.833 242.5,154.5C 241.833,148.167 241.167,141.833 240.5,135.5C 237.102,135.82 233.768,135.487 230.5,134.5C 230.624,133.893 230.957,133.56 231.5,133.5 Z"/>
    </g>
    <g>
        <path fill="#6a8993" d="M 257.5,133.5 C 257.5,138.167 257.5,142.833 257.5,147.5C 262.167,147.5 266.833,147.5 271.5,147.5C 271.5,142.833 271.5,138.167 271.5,133.5C 272.65,138.316 272.816,143.316 272,148.5C 267.045,148.602 261.878,148.602 256.5,148.5C 256.179,143.305 256.513,138.305 257.5,133.5 Z"/>
    </g>
    <g>
        <path fill="#0a2633" d="M 257.5,133.5 C 262.167,133.5 266.833,133.5 271.5,133.5C 271.5,138.167 271.5,142.833 271.5,147.5C 266.833,147.5 262.167,147.5 257.5,147.5C 257.5,142.833 257.5,138.167 257.5,133.5 Z"/>
    </g>
    <g>
        <path fill="#0a242f" d="M 91.5,133.5 C 92.7899,134.058 93.6232,135.058 94,136.5C 95.0847,134.343 96.2513,134.176 97.5,136C 96.0175,138.573 96.5175,140.74 99,142.5C 100.482,140.219 102.149,140.219 104,142.5C 104.419,141.328 105.085,140.328 106,139.5C 106.5,140.667 107.333,141.5 108.5,142C 107.185,143.395 107.519,144.395 109.5,145C 107.792,147.043 105.792,148.71 103.5,150C 101.066,150.333 100.066,149.166 100.5,146.5C 98.5853,146.216 96.9187,146.549 95.5,147.5C 95.5,158.5 95.5,169.5 95.5,180.5C 95.8417,181.338 96.5084,181.672 97.5,181.5C 96.791,182.404 95.791,182.737 94.5,182.5C 94.4506,179.901 93.4506,177.734 91.5,176C 92.6537,175.086 92.487,174.253 91,173.5C 90.6667,174.167 90.3333,174.833 90,175.5C 89,174.167 88,174.167 87,175.5C 86.1779,173.212 85.5112,170.878 85,168.5C 84.7761,175.037 84.2761,181.537 83.5,188C 85.0978,189.726 84.7645,190.559 82.5,190.5C 82.5,183.167 82.5,175.833 82.5,168.5C 77.5,168.5 72.5,168.5 67.5,168.5C 64.1667,168.5 60.8333,168.5 57.5,168.5C 57.5,164.167 57.5,159.833 57.5,155.5C 65.8333,155.5 74.1667,155.5 82.5,155.5C 82.5,148.833 82.5,142.167 82.5,135.5C 85.8774,135.932 88.8774,135.265 91.5,133.5 Z"/>
    </g>
    <g>
        <path fill="#5e787b" d="M 197.5,148.5 C 198.924,150.515 199.59,152.848 199.5,155.5C 198.076,153.485 197.41,151.152 197.5,148.5 Z"/>
    </g>
    <g>
        <path fill="#708f97" d="M 102.5,151.5 C 104.027,151.427 105.027,152.094 105.5,153.5C 103.973,153.573 102.973,152.906 102.5,151.5 Z"/>
    </g>
    <g>
        <path fill="#596c71" d="M 127.5,147.5 C 127.59,150.152 126.924,152.485 125.5,154.5C 125.41,151.848 126.076,149.515 127.5,147.5 Z"/>
    </g>
    <g>
        <path fill="#90a7ab" d="M 82.5,135.5 C 82.5,142.167 82.5,148.833 82.5,155.5C 74.1667,155.5 65.8333,155.5 57.5,155.5C 57.5,159.833 57.5,164.167 57.5,168.5C 56.5139,164.03 56.1805,159.363 56.5,154.5C 64.8333,154.5 73.1667,154.5 81.5,154.5C 81.1765,147.978 81.5098,141.645 82.5,135.5 Z"/>
    </g>
    <g>
        <path fill="#76969c" d="M 105.5,153.5 C 107.027,153.427 108.027,154.094 108.5,155.5C 106.973,155.573 105.973,154.906 105.5,153.5 Z"/>
    </g>
    <g>
        <path fill="#8da0ac" d="M 114.5,148.5 C 114.167,151.833 113.833,155.167 113.5,158.5C 112.209,158.737 111.209,158.404 110.5,157.5C 112.15,154.744 113.483,151.744 114.5,148.5 Z"/>
    </g>
    <g>
        <path fill="#526f77" d="M 209.5,148.5 C 211.163,150.438 211.829,152.772 211.5,155.5C 213.167,155.5 214.833,155.5 216.5,155.5C 215.125,157.07 213.459,157.903 211.5,158C 210.568,154.915 209.901,151.748 209.5,148.5 Z"/>
    </g>
    <g>
        <path fill="#57727e" d="M 229.5,148.5 C 229.826,157.017 229.493,165.35 228.5,173.5C 228.5,165.5 228.5,157.5 228.5,149.5C 227.5,149.5 226.5,149.5 225.5,149.5C 226.705,147.862 228.038,147.529 229.5,148.5 Z"/>
    </g>
    <g>
        <path fill="#7d9ca9" d="M 95.5,147.5 C 96.4916,147.328 97.1583,147.662 97.5,148.5C 96.1667,158.833 96.1667,169.167 97.5,179.5C 97.1583,180.338 96.4916,180.672 95.5,180.5C 95.5,169.5 95.5,158.5 95.5,147.5 Z"/>
    </g>
    <g>
        <path fill="#405459" d="M 184.5,158.5 C 185.809,162.351 185.809,166.351 184.5,170.5C 183.817,170.863 183.15,171.196 182.5,171.5C 184.064,167.326 184.731,162.993 184.5,158.5 Z"/>
    </g>
    <g>
        <path fill="#a8bac6" d="M 242.5,154.5 C 250.833,154.5 259.167,154.5 267.5,154.5C 267.5,159.5 267.5,164.5 267.5,169.5C 263.298,169.817 259.298,169.483 255.5,168.5C 259.167,168.5 262.833,168.5 266.5,168.5C 266.5,164.167 266.5,159.833 266.5,155.5C 258.316,155.826 250.316,155.492 242.5,154.5 Z"/>
    </g>
    <g>
        <path fill="#acc0c6" d="M 67.5,168.5 C 72.5,168.5 77.5,168.5 82.5,168.5C 82.5,175.833 82.5,183.167 82.5,190.5C 82.5,190.833 82.5,191.167 82.5,191.5C 81.5084,184.352 81.175,177.019 81.5,169.5C 76.6367,169.819 71.97,169.486 67.5,168.5 Z"/>
    </g>
    <g>
        <path fill="#53737a" d="M 216.5,173.5 C 214.451,172.359 212.451,172.359 210.5,173.5C 210.343,172.127 210.51,170.793 211,169.5C 213.167,170.488 215,171.821 216.5,173.5 Z"/>
    </g>
    <g>
        <path fill="#9ba7ab" d="M 125.5,170.5 C 126.738,172.214 127.405,174.214 127.5,176.5C 125.926,174.898 125.259,172.898 125.5,170.5 Z"/>
    </g>
    <g>
        <path fill="#314e51" d="M 272.5,188.5 C 272.167,188.5 271.833,188.5 271.5,188.5C 271.5,184.167 271.5,179.833 271.5,175.5C 266.833,175.5 262.167,175.5 257.5,175.5C 257.5,175.167 257.5,174.833 257.5,174.5C 262.437,173.567 267.437,173.9 272.5,175.5C 272.654,179.652 272.654,183.985 272.5,188.5 Z"/>
    </g>
    <g>
        <path fill="#49636a" d="M 51.5,173.5 C 56.5365,173.413 61.5365,173.746 66.5,174.5C 66.5,179.5 66.5,184.5 66.5,189.5C 61.5,189.5 56.5,189.5 51.5,189.5C 50.8966,183.787 50.8966,178.453 51.5,173.5 Z"/>
    </g>
    <g>
        <path fill="#19343c" d="M 111.5,192.5 C 111.5,191.5 111.5,190.5 111.5,189.5C 109.876,189.36 108.71,190.027 108,191.5C 107.146,188.593 107.979,186.26 110.5,184.5C 111.281,185.729 111.781,187.062 112,188.5C 112.75,187.874 113.584,187.374 114.5,187C 113.692,186.692 113.025,186.192 112.5,185.5C 112.106,183.576 112.773,181.743 114.5,180C 112.797,181.028 110.963,182.194 109,183.5C 108.167,183.333 107.333,183.167 106.5,183C 107.28,181.927 107.113,180.76 106,179.5C 104.951,180.517 103.784,180.684 102.5,180C 104.595,179.444 104.762,178.944 103,178.5C 100.915,179.124 99.0816,180.124 97.5,181.5C 96.5084,181.672 95.8417,181.338 95.5,180.5C 96.4916,180.672 97.1583,180.338 97.5,179.5C 102.162,175.01 107.495,171.843 113.5,170C 114.798,175.724 116.798,181.224 119.5,186.5C 117.122,188.878 114.455,190.878 111.5,192.5 Z"/>
    </g>
    <g>
        <path fill="#092631" d="M 58.5,175.5 C 60.8333,175.5 63.1667,175.5 65.5,175.5C 65.5,179.833 65.5,184.167 65.5,188.5C 61.1667,188.5 56.8333,188.5 52.5,188.5C 52.3345,184.486 52.5012,180.486 53,176.5C 55.6766,179.482 57.51,179.149 58.5,175.5 Z"/>
    </g>
    <g>
        <path fill="#627b7f" d="M 210.5,173.5 C 210.829,176.228 210.163,178.562 208.5,180.5C 208.41,177.848 209.076,175.515 210.5,173.5 Z"/>
    </g>
    <g>
        <path fill="#617276" d="M 181.5,174.5 C 180.5,177.5 178.5,179.5 175.5,180.5C 177.167,178.167 179.167,176.167 181.5,174.5 Z"/>
    </g>
    <g>
        <path fill="#0f2832" d="M 240.5,135.5 C 241.167,141.833 241.833,148.167 242.5,154.5C 250.316,155.492 258.316,155.826 266.5,155.5C 266.5,159.833 266.5,164.167 266.5,168.5C 262.833,168.5 259.167,168.5 255.5,168.5C 254.833,168.5 254.167,168.5 253.5,168.5C 249.767,167.179 245.934,167.179 242,168.5C 241.5,175.826 241.334,183.159 241.5,190.5C 239.585,190.216 237.919,190.549 236.5,191.5C 238.167,192.833 239.833,194.167 241.5,195.5C 242.035,197.446 243.368,198.446 245.5,198.5C 247.23,199.026 248.564,200.026 249.5,201.5C 250.538,203.519 251.872,203.853 253.5,202.5C 265.385,198.807 273.719,202.807 278.5,214.5C 279.05,221.611 277.717,228.278 274.5,234.5C 271.5,234.833 269.833,236.5 269.5,239.5C 264.841,242.374 259.841,243.041 254.5,241.5C 252.393,240.532 250.059,240.198 247.5,240.5C 247.567,241.959 247.234,243.292 246.5,244.5C 245.738,246.262 244.404,247.262 242.5,247.5C 241.85,247.196 241.183,246.863 240.5,246.5C 239.305,248.297 237.638,249.297 235.5,249.5C 235.5,250.5 235.5,251.5 235.5,252.5C 231.998,252.389 228.998,253.556 226.5,256C 224.877,259.415 222.877,262.582 220.5,265.5C 214.354,267.595 210.021,265.595 207.5,259.5C 207.125,256.603 207.625,253.937 209,251.5C 209.494,253.134 209.66,254.801 209.5,256.5C 210.552,256.649 211.552,256.483 212.5,256C 212.167,255.667 211.833,255.333 211.5,255C 212.993,253.632 214.493,253.465 216,254.5C 215.745,253.085 215.245,251.585 214.5,250C 214.625,248.373 215.125,246.873 216,245.5C 216.626,247.991 217.459,247.991 218.5,245.5C 219.5,246.167 220.5,246.833 221.5,247.5C 222.298,247.043 222.631,246.376 222.5,245.5C 223.167,245.5 223.5,245.167 223.5,244.5C 229.509,239.732 235.675,235.066 242,230.5C 241.543,227.753 241.043,224.92 240.5,222C 240.657,219.363 241.323,216.863 242.5,214.5C 234.319,207.585 225.985,200.918 217.5,194.5C 217.027,193.094 216.027,192.427 214.5,192.5C 214.027,191.094 213.027,190.427 211.5,190.5C 211.027,189.094 210.027,188.427 208.5,188.5C 207.4,187.395 206.733,186.062 206.5,184.5C 206.66,182.847 207.326,181.514 208.5,180.5C 210.163,178.562 210.829,176.228 210.5,173.5C 212.451,172.359 214.451,172.359 216.5,173.5C 220.133,175.443 223.799,177.443 227.5,179.5C 228.466,177.604 228.799,175.604 228.5,173.5C 229.493,165.35 229.826,157.017 229.5,148.5C 231.124,148.64 232.29,147.973 233,146.5C 233.638,147.609 234.138,148.775 234.5,150C 233.421,154.458 233.254,158.958 234,163.5C 234.204,158.364 236.037,154.031 239.5,150.5C 240.494,145.544 240.827,140.544 240.5,135.5 Z M 262.5,216.5 C 263.167,217.833 264.167,218.833 265.5,219.5C 265.483,221.565 265.15,223.565 264.5,225.5C 262.236,226.219 259.903,226.552 257.5,226.5C 257.167,225.5 256.5,224.833 255.5,224.5C 254.167,222.5 254.167,220.5 255.5,218.5C 257.479,216.832 259.812,216.166 262.5,216.5 Z"/>
    </g>
    <g>
        <path fill="#3c6068" d="M 253.5,168.5 C 249.894,168.211 246.394,168.544 243,169.5C 242.5,176.826 242.334,184.159 242.5,191.5C 240.5,191.5 238.5,191.5 236.5,191.5C 237.919,190.549 239.585,190.216 241.5,190.5C 241.334,183.159 241.5,175.826 242,168.5C 245.934,167.179 249.767,167.179 253.5,168.5 Z"/>
    </g>
    <g>
        <path fill="#90a6ae" d="M 257.5,174.5 C 257.5,174.833 257.5,175.167 257.5,175.5C 257.5,179.833 257.5,184.167 257.5,188.5C 262.167,188.5 266.833,188.5 271.5,188.5C 271.833,188.5 272.167,188.5 272.5,188.5C 267.36,189.488 262.026,189.821 256.5,189.5C 256.179,184.305 256.513,179.305 257.5,174.5 Z"/>
    </g>
    <g>
        <path fill="#0a2530" d="M 257.5,175.5 C 262.167,175.5 266.833,175.5 271.5,175.5C 271.5,179.833 271.5,184.167 271.5,188.5C 266.833,188.5 262.167,188.5 257.5,188.5C 257.5,184.167 257.5,179.833 257.5,175.5 Z"/>
    </g>
    <g>
        <path fill="#76949d" d="M 206.5,184.5 C 206.733,186.062 207.4,187.395 208.5,188.5C 205.691,188.042 205.024,186.709 206.5,184.5 Z"/>
    </g>
    <g>
        <path fill="#7996a2" d="M 208.5,188.5 C 210.027,188.427 211.027,189.094 211.5,190.5C 209.973,190.573 208.973,189.906 208.5,188.5 Z"/>
    </g>
    <g>
        <path fill="#6e878a" d="M 137.5,190.5 C 139.749,191.08 141.415,192.413 142.5,194.5C 140.251,193.92 138.585,192.587 137.5,190.5 Z"/>
    </g>
    <g>
        <path fill="#c0cedd" d="M 83.5,191.5 C 85.604,191.201 87.604,191.534 89.5,192.5C 89.0431,193.298 88.3764,193.631 87.5,193.5C 86.1667,192.833 84.8333,192.167 83.5,191.5 Z"/>
    </g>
    <g>
        <path fill="#3c5559" d="M 188.5,189.5 C 187.089,191.914 185.089,193.581 182.5,194.5C 183.903,191.969 185.07,189.302 186,186.5C 186.236,188.119 187.069,189.119 188.5,189.5 Z"/>
    </g>
    <g>
        <path fill="#748ea0" d="M 211.5,190.5 C 213.027,190.427 214.027,191.094 214.5,192.5C 212.973,192.573 211.973,191.906 211.5,190.5 Z"/>
    </g>
    <g>
        <path fill="#364f51" d="M 177.5,197.5 C 175.438,198.776 173.104,199.61 170.5,200C 166.179,200.499 161.846,200.666 157.5,200.5C 157.5,200.167 157.5,199.833 157.5,199.5C 161.759,199.997 165.759,199.331 169.5,197.5C 172.996,198.478 173.33,197.644 170.5,195C 171.766,194.691 172.933,194.191 174,193.5C 174.684,194.784 174.517,195.951 173.5,197C 174.793,197.49 176.127,197.657 177.5,197.5 Z"/>
    </g>
    <g>
        <path fill="#6c8594" d="M 214.5,192.5 C 216.027,192.427 217.027,193.094 217.5,194.5C 215.973,194.573 214.973,193.906 214.5,192.5 Z"/>
    </g>
    <g>
        <path fill="#789195" d="M 87.5,193.5 C 87.0269,194.906 86.0269,195.573 84.5,195.5C 84.9731,194.094 85.9731,193.427 87.5,193.5 Z"/>
    </g>
    <g>
        <path fill="#96a9ad" d="M 142.5,194.5 C 144.027,194.427 145.027,195.094 145.5,196.5C 143.973,196.573 142.973,195.906 142.5,194.5 Z"/>
    </g>
    <g>
        <path fill="#6c848a" d="M 84.5,195.5 C 84.0269,196.906 83.0269,197.573 81.5,197.5C 81.9731,196.094 82.9731,195.427 84.5,195.5 Z"/>
    </g>
    <g>
        <path fill="#6b8082" d="M 145.5,196.5 C 149.485,197.488 153.485,198.488 157.5,199.5C 157.5,199.833 157.5,200.167 157.5,200.5C 153.085,200.139 149.085,198.806 145.5,196.5 Z"/>
    </g>
    <g>
        <path fill="#546a70" d="M 200.5,197.5 C 197.615,198.382 194.948,199.716 192.5,201.5C 194.248,197.65 196.915,196.317 200.5,197.5 Z"/>
    </g>
    <g>
        <path fill="#7c949b" d="M 241.5,195.5 C 243.23,196.026 244.564,197.026 245.5,198.5C 243.368,198.446 242.035,197.446 241.5,195.5 Z"/>
    </g>
    <g>
        <path fill="#73878b" d="M 124.5,197.5 C 124.027,198.906 123.027,199.573 121.5,199.5C 121.973,198.094 122.973,197.427 124.5,197.5 Z"/>
    </g>
    <g>
        <path fill="#788b8d" d="M 121.5,199.5 C 120.415,201.587 118.749,202.92 116.5,203.5C 117.585,201.413 119.251,200.08 121.5,199.5 Z"/>
    </g>
    <g>
        <path fill="#092027" d="M 124.5,197.5 C 125.239,197.369 125.906,197.536 126.5,198C 122.886,200.141 122.886,202.475 126.5,205C 125.833,206.667 125.167,208.333 124.5,210C 122.208,208.899 120.708,209.732 120,212.5C 119,212.167 118,211.833 117,211.5C 114.667,212.833 112.333,214.167 110,215.5C 108.585,213.157 108.418,210.823 109.5,208.5C 111.404,208.262 112.738,207.262 113.5,205.5C 115.027,205.573 116.027,204.906 116.5,203.5C 118.749,202.92 120.415,201.587 121.5,199.5C 123.027,199.573 124.027,198.906 124.5,197.5 Z"/>
    </g>
    <g>
        <path fill="#122a32" d="M 200.5,197.5 C 210.697,203.429 220.364,210.096 229.5,217.5C 229.904,218.756 230.571,219.923 231.5,221C 231.167,221.5 230.833,222 230.5,222.5C 229.391,221.41 228.391,221.41 227.5,222.5C 228.127,223.417 228.461,224.417 228.5,225.5C 228.5,226.167 228.167,226.5 227.5,226.5C 226.167,226.5 224.833,226.5 223.5,226.5C 223.5,227.833 223.5,229.167 223.5,230.5C 222.833,231.167 222.167,231.833 221.5,232.5C 220.837,234.473 220.504,236.639 220.5,239C 220.533,241.61 221.2,243.777 222.5,245.5C 222.631,246.376 222.298,247.043 221.5,247.5C 220.5,246.833 219.5,246.167 218.5,245.5C 217.459,247.991 216.626,247.991 216,245.5C 215.125,246.873 214.625,248.373 214.5,250C 215.245,251.585 215.745,253.085 216,254.5C 214.493,253.465 212.993,253.632 211.5,255C 211.833,255.333 212.167,255.667 212.5,256C 211.552,256.483 210.552,256.649 209.5,256.5C 209.66,254.801 209.494,253.134 209,251.5C 207.625,253.937 207.125,256.603 207.5,259.5C 207.208,253.605 207.208,247.605 207.5,241.5C 198.643,247.758 189.643,253.758 180.5,259.5C 180.423,258.25 179.756,257.417 178.5,257C 180.108,254.451 182.775,252.284 186.5,250.5C 187.76,248.647 187.76,246.814 186.5,245C 184.865,244.46 183.532,244.96 182.5,246.5C 182.167,245.833 181.833,245.167 181.5,244.5C 178.166,245.831 175.166,247.665 172.5,250C 171.207,250.49 169.873,250.657 168.5,250.5C 176.976,243.759 185.976,237.759 195.5,232.5C 197.404,232.262 198.738,231.262 199.5,229.5C 201.027,229.573 202.027,228.906 202.5,227.5C 204.404,227.262 205.738,226.262 206.5,224.5C 209.682,223.86 210.015,222.86 207.5,221.5C 206.738,219.738 205.404,218.738 203.5,218.5C 202.089,216.086 200.089,214.419 197.5,213.5C 194.467,211.984 191.8,209.984 189.5,207.5C 188.167,206.167 188.167,204.833 189.5,203.5C 189.973,202.094 190.973,201.427 192.5,201.5C 194.948,199.716 197.615,198.382 200.5,197.5 Z"/>
    </g>
    <g>
        <path fill="#82969f" d="M 249.5,201.5 C 250.833,201.833 252.167,202.167 253.5,202.5C 251.872,203.853 250.538,203.519 249.5,201.5 Z"/>
    </g>
    <g>
        <path fill="#0e2731" d="M 97.5,181.5 C 99.0816,180.124 100.915,179.124 103,178.5C 104.762,178.944 104.595,179.444 102.5,180C 103.784,180.684 104.951,180.517 106,179.5C 107.113,180.76 107.28,181.927 106.5,183C 107.333,183.167 108.167,183.333 109,183.5C 110.963,182.194 112.797,181.028 114.5,180C 112.773,181.743 112.106,183.576 112.5,185.5C 113.025,186.192 113.692,186.692 114.5,187C 113.584,187.374 112.75,187.874 112,188.5C 111.781,187.062 111.281,185.729 110.5,184.5C 107.979,186.26 107.146,188.593 108,191.5C 108.71,190.027 109.876,189.36 111.5,189.5C 111.5,190.5 111.5,191.5 111.5,192.5C 108.048,195.399 104.382,198.066 100.5,200.5C 98.8333,200.5 97.1667,200.5 95.5,200.5C 95.5,201.5 95.5,202.5 95.5,203.5C 91.0834,203.258 88.4167,205.258 87.5,209.5C 85.7772,211.218 83.7772,212.551 81.5,213.5C 80.6236,213.369 79.9569,213.702 79.5,214.5C 80.1272,215.417 80.4606,216.417 80.5,217.5C 80.0387,222.553 78.0387,226.887 74.5,230.5C 74.8178,231.647 75.4844,232.481 76.5,233C 74.9632,234.11 74.2965,235.61 74.5,237.5C 78.2495,237.7 81.4161,237.033 84,235.5C 84.4922,236.549 84.3256,237.549 83.5,238.5C 84.2472,238.736 85.0805,239.07 86,239.5C 86.3333,238.5 86.6667,237.5 87,236.5C 87.6667,237.833 88.3333,237.833 89,236.5C 89.624,238.703 89.124,240.703 87.5,242.5C 91.1615,245.948 93.8281,249.614 95.5,253.5C 93.7839,253.371 92.1172,253.038 90.5,252.5C 90.0269,251.094 89.0269,250.427 87.5,250.5C 87.0269,249.094 86.0269,248.427 84.5,248.5C 84.0269,247.094 83.0269,246.427 81.5,246.5C 81.0269,245.094 80.0269,244.427 78.5,244.5C 76.0313,243.431 73.6979,242.098 71.5,240.5C 69.0281,240.942 66.5281,241.275 64,241.5C 60.4586,240.975 56.9586,240.308 53.5,239.5C 53.0269,238.094 52.0269,237.427 50.5,237.5C 46.4055,234.983 44.0721,231.316 43.5,226.5C 43.5045,222.466 43.8379,218.466 44.5,214.5C 44.3284,213.508 44.6618,212.842 45.5,212.5C 48.9363,211.397 50.9363,209.064 51.5,205.5C 55.7991,201.639 60.7991,200.305 66.5,201.5C 68.7134,203.312 71.0467,203.645 73.5,202.5C 76.1841,200.807 78.8508,199.14 81.5,197.5C 83.0269,197.573 84.0269,196.906 84.5,195.5C 86.0269,195.573 87.0269,194.906 87.5,193.5C 88.3764,193.631 89.0431,193.298 89.5,192.5C 87.604,191.534 85.604,191.201 83.5,191.5C 83.1667,191.5 82.8333,191.5 82.5,191.5C 82.5,191.167 82.5,190.833 82.5,190.5C 84.7645,190.559 85.0978,189.726 83.5,188C 84.2761,181.537 84.7761,175.037 85,168.5C 85.5112,170.878 86.1779,173.212 87,175.5C 88,174.167 89,174.167 90,175.5C 90.3333,174.833 90.6667,174.167 91,173.5C 92.487,174.253 92.6537,175.086 91.5,176C 93.4506,177.734 94.4506,179.901 94.5,182.5C 95.791,182.737 96.791,182.404 97.5,181.5 Z M 65.5,216.5 C 69.7797,222.609 68.113,225.942 60.5,226.5C 59.8333,225.167 58.8333,224.167 57.5,223.5C 57.6287,221.784 57.962,220.117 58.5,218.5C 60.588,217.061 62.9214,216.394 65.5,216.5 Z"/>
    </g>
    <g>
        <path fill="#abbec6" d="M 66.5,201.5 C 68.861,201.674 71.1944,202.007 73.5,202.5C 71.0467,203.645 68.7134,203.312 66.5,201.5 Z"/>
    </g>
    <g>
        <path fill="#496264" d="M 100.5,200.5 C 96.4654,203.857 92.1321,206.857 87.5,209.5C 88.4167,205.258 91.0834,203.258 95.5,203.5C 95.5,202.5 95.5,201.5 95.5,200.5C 97.1667,200.5 98.8333,200.5 100.5,200.5 Z"/>
    </g>
    <g>
        <path fill="#6f7f83" d="M 116.5,203.5 C 116.027,204.906 115.027,205.573 113.5,205.5C 113.973,204.094 114.973,203.427 116.5,203.5 Z"/>
    </g>
    <g>
        <path fill="#759097" d="M 189.5,203.5 C 188.167,204.833 188.167,206.167 189.5,207.5C 185.5,206.167 185.5,204.833 189.5,203.5 Z"/>
    </g>
    <g>
        <path fill="#75898e" d="M 113.5,205.5 C 112.738,207.262 111.404,208.262 109.5,208.5C 110.262,206.738 111.596,205.738 113.5,205.5 Z"/>
    </g>
    <g>
        <path fill="#3c4e52" d="M 51.5,205.5 C 50.9363,209.064 48.9363,211.397 45.5,212.5C 46.3481,209.112 48.3481,206.779 51.5,205.5 Z"/>
    </g>
    <g>
        <path fill="#a3b4be" d="M 81.5,213.5 C 81.5,214.833 81.5,216.167 81.5,217.5C 81.1667,217.5 80.8333,217.5 80.5,217.5C 80.4606,216.417 80.1272,215.417 79.5,214.5C 79.9569,213.702 80.6236,213.369 81.5,213.5 Z"/>
    </g>
    <g>
        <path fill="#112832" d="M 167.5,213.5 C 170.833,213.5 174.167,213.5 177.5,213.5C 177.261,215.467 177.594,217.301 178.5,219C 177.833,219.333 177.167,219.667 176.5,220C 177.711,221.113 177.711,222.28 176.5,223.5C 178.047,223.207 179.714,223.707 181.5,225C 180.944,225.383 180.611,225.883 180.5,226.5C 178.214,226.595 176.214,227.262 174.5,228.5C 168.029,230.591 161.362,230.925 154.5,229.5C 150.089,227.303 145.422,225.636 140.5,224.5C 140.611,223.883 140.944,223.383 141.5,223C 139.942,222.79 138.609,222.29 137.5,221.5C 140.427,220.243 142.761,218.243 144.5,215.5C 145.572,213.429 147.239,212.095 149.5,211.5C 155.399,213.067 161.399,213.733 167.5,213.5 Z"/>
    </g>
    <g>
        <path fill="#aab9c4" d="M 181.5,215.5 C 183.027,215.427 184.027,216.094 184.5,217.5C 182.973,217.573 181.973,216.906 181.5,215.5 Z"/>
    </g>
    <g>
        <path fill="#99b5c3" d="M 65.5,216.5 C 62.9214,216.394 60.588,217.061 58.5,218.5C 58.5774,217.25 59.244,216.417 60.5,216C 62.3869,215.22 64.0536,215.387 65.5,216.5 Z"/>
    </g>
    <g>
        <path fill="#708793" d="M 197.5,213.5 C 200.089,214.419 202.089,216.086 203.5,218.5C 200.911,217.581 198.911,215.914 197.5,213.5 Z"/>
    </g>
    <g>
        <path fill="#94abb8" d="M 262.5,216.5 C 264.5,216.5 265.5,217.5 265.5,219.5C 264.167,218.833 263.167,217.833 262.5,216.5 Z"/>
    </g>
    <g>
        <path fill="#223b44" d="M 181.5,215.5 C 181.973,216.906 182.973,217.573 184.5,217.5C 186.479,218.812 188.145,220.479 189.5,222.5C 186.852,224.658 183.852,225.992 180.5,226.5C 180.611,225.883 180.944,225.383 181.5,225C 179.714,223.707 178.047,223.207 176.5,223.5C 177.711,222.28 177.711,221.113 176.5,220C 177.167,219.667 177.833,219.333 178.5,219C 177.594,217.301 177.261,215.467 177.5,213.5C 174.167,213.5 170.833,213.5 167.5,213.5C 170.485,212.818 173.485,211.818 176.5,210.5C 178.521,211.855 180.188,213.521 181.5,215.5 Z"/>
    </g>
    <g>
        <path fill="#53686c" d="M 144.5,215.5 C 142.761,218.243 140.427,220.243 137.5,221.5C 139.239,218.757 141.573,216.757 144.5,215.5 Z"/>
    </g>
    <g>
        <path fill="#708492" d="M 203.5,218.5 C 205.404,218.738 206.738,219.738 207.5,221.5C 205.596,221.262 204.262,220.262 203.5,218.5 Z"/>
    </g>
    <g>
        <path fill="#a2aab3" d="M 44.5,214.5 C 43.8379,218.466 43.5045,222.466 43.5,226.5C 42.8418,225.207 42.5085,223.707 42.5,222C 42.4078,219.179 43.0744,216.679 44.5,214.5 Z"/>
    </g>
    <g>
        <path fill="#84a0b1" d="M 58.5,218.5 C 57.962,220.117 57.6287,221.784 57.5,223.5C 56.0698,221.545 56.4031,219.879 58.5,218.5 Z"/>
    </g>
    <g>
        <path fill="#869fab" d="M 255.5,218.5 C 254.167,220.5 254.167,222.5 255.5,224.5C 252.833,222.5 252.833,220.5 255.5,218.5 Z"/>
    </g>
    <g>
        <path fill="#506a70" d="M 278.5,214.5 C 282.055,225.078 279.055,233.412 269.5,239.5C 269.833,236.5 271.5,234.833 274.5,234.5C 277.717,228.278 279.05,221.611 278.5,214.5 Z"/>
    </g>
    <g>
        <path fill="#49656c" d="M 229.5,217.5 C 234.839,220.55 234.506,223.217 228.5,225.5C 228.461,224.417 228.127,223.417 227.5,222.5C 228.391,221.41 229.391,221.41 230.5,222.5C 230.833,222 231.167,221.5 231.5,221C 230.571,219.923 229.904,218.756 229.5,217.5 Z"/>
    </g>
    <g>
        <path fill="#b7cad7" d="M 119.5,220.5 C 118.89,221.391 118.557,222.391 118.5,223.5C 117.115,222.053 117.448,221.053 119.5,220.5 Z"/>
    </g>
    <g>
        <path fill="#4c6065" d="M 137.5,221.5 C 138.609,222.29 139.942,222.79 141.5,223C 140.944,223.383 140.611,223.883 140.5,224.5C 139.417,224.461 138.417,224.127 137.5,223.5C 136.227,222.743 136.227,222.077 137.5,221.5 Z"/>
    </g>
    <g>
        <path fill="#798d9c" d="M 207.5,221.5 C 210.015,222.86 209.682,223.86 206.5,224.5C 207.11,223.609 207.443,222.609 207.5,221.5 Z"/>
    </g>
    <g>
        <path fill="#7d949c" d="M 57.5,223.5 C 58.8333,224.167 59.8333,225.167 60.5,226.5C 58.5,226.5 57.5,225.5 57.5,223.5 Z"/>
    </g>
    <g>
        <path fill="#152e37" d="M 124.5,197.5 C 125.601,196.402 126.934,196.235 128.5,197C 131.396,199.975 134.396,202.808 137.5,205.5C 132.09,211.247 126.09,216.247 119.5,220.5C 117.448,221.053 117.115,222.053 118.5,223.5C 127.87,229.846 137.204,236.18 146.5,242.5C 145.417,242.461 144.417,242.127 143.5,241.5C 141.253,243.305 138.753,244.638 136,245.5C 135.333,244.833 134.667,244.167 134,243.5C 132.75,245.193 131.25,246.527 129.5,247.5C 129.167,247.5 128.833,247.5 128.5,247.5C 127.508,247.672 126.842,247.338 126.5,246.5C 126.027,245.094 125.027,244.427 123.5,244.5C 123.027,243.094 122.027,242.427 120.5,242.5C 119.5,242.5 118.5,242.5 117.5,242.5C 118.056,246.84 118.723,251.173 119.5,255.5C 117.097,265.199 111.43,268.199 102.5,264.5C 101.833,263.167 100.833,262.167 99.5,261.5C 99.7083,257.915 98.375,255.249 95.5,253.5C 93.8281,249.614 91.1615,245.948 87.5,242.5C 89.124,240.703 89.624,238.703 89,236.5C 88.3333,237.833 87.6667,237.833 87,236.5C 86.6667,237.5 86.3333,238.5 86,239.5C 85.0805,239.07 84.2472,238.736 83.5,238.5C 84.3256,237.549 84.4922,236.549 84,235.5C 81.4161,237.033 78.2495,237.7 74.5,237.5C 74.2965,235.61 74.9632,234.11 76.5,233C 75.4844,232.481 74.8178,231.647 74.5,230.5C 78.0387,226.887 80.0387,222.553 80.5,217.5C 80.8333,217.5 81.1667,217.5 81.5,217.5C 82.3499,221.619 82.3499,225.619 81.5,229.5C 88.4866,234.994 95.82,239.994 103.5,244.5C 104.66,240.541 104.827,236.541 104,232.5C 99.7714,228.638 95.2714,225.138 90.5,222C 96.4528,216.867 102.786,212.367 109.5,208.5C 108.418,210.823 108.585,213.157 110,215.5C 112.333,214.167 114.667,212.833 117,211.5C 118,211.833 119,212.167 120,212.5C 120.708,209.732 122.208,208.899 124.5,210C 125.167,208.333 125.833,206.667 126.5,205C 122.886,202.475 122.886,200.141 126.5,198C 125.906,197.536 125.239,197.369 124.5,197.5 Z"/>
    </g>
    <g>
        <path fill="#5d767b" d="M 265.5,219.5 C 266.147,220.274 266.48,221.274 266.5,222.5C 266.36,224.03 265.693,225.03 264.5,225.5C 265.15,223.565 265.483,221.565 265.5,219.5 Z"/>
    </g>
    <g>
        <path fill="#799299" d="M 206.5,224.5 C 205.738,226.262 204.404,227.262 202.5,227.5C 203.262,225.738 204.596,224.738 206.5,224.5 Z"/>
    </g>
    <g>
        <path fill="#788b93" d="M 140.5,224.5 C 145.422,225.636 150.089,227.303 154.5,229.5C 149.331,229.001 144.664,227.334 140.5,224.5 Z"/>
    </g>
    <g>
        <path fill="#587079" d="M 227.5,226.5 C 226.5,228.167 225.167,229.5 223.5,230.5C 223.5,229.167 223.5,227.833 223.5,226.5C 224.833,226.5 226.167,226.5 227.5,226.5 Z"/>
    </g>
    <g>
        <path fill="#5a7477" d="M 264.5,225.5 C 263.848,226.725 262.681,227.392 261,227.5C 259.615,227.486 258.449,227.152 257.5,226.5C 258.449,227.152 259.615,227.486 261,227.5C 262.681,227.392 263.848,226.725 264.5,225.5 Z"/>
    </g>
    <g>
        <path fill="#99acab" d="M 180.5,226.5 C 178.898,228.074 176.898,228.741 174.5,228.5C 176.214,227.262 178.214,226.595 180.5,226.5 Z"/>
    </g>
    <g>
        <path fill="#72898f" d="M 202.5,227.5 C 202.027,228.906 201.027,229.573 199.5,229.5C 199.973,228.094 200.973,227.427 202.5,227.5 Z"/>
    </g>
    <g>
        <path fill="#6c8489" d="M 199.5,229.5 C 198.738,231.262 197.404,232.262 195.5,232.5C 196.262,230.738 197.596,229.738 199.5,229.5 Z"/>
    </g>
    <g>
        <path fill="#889fac" d="M 50.5,237.5 C 52.0269,237.427 53.0269,238.094 53.5,239.5C 51.9731,239.573 50.9731,238.906 50.5,237.5 Z"/>
    </g>
    <g>
        <path fill="#556570" d="M 221.5,232.5 C 220.911,236.971 221.577,240.971 223.5,244.5C 223.5,245.167 223.167,245.5 222.5,245.5C 221.2,243.777 220.533,241.61 220.5,239C 220.504,236.639 220.837,234.473 221.5,232.5 Z"/>
    </g>
    <g>
        <path fill="#51707b" d="M 254.5,241.5 C 251.594,241.957 248.928,242.957 246.5,244.5C 247.234,243.292 247.567,241.959 247.5,240.5C 250.059,240.198 252.393,240.532 254.5,241.5 Z"/>
    </g>
    <g>
        <path fill="#668285" d="M 53.5,239.5 C 56.9586,240.308 60.4586,240.975 64,241.5C 66.5281,241.275 69.0281,240.942 71.5,240.5C 69.3655,242.033 66.8655,242.7 64,242.5C 60.024,242.782 56.524,241.782 53.5,239.5 Z"/>
    </g>
    <g>
        <path fill="#75899a" d="M 120.5,242.5 C 122.027,242.427 123.027,243.094 123.5,244.5C 121.973,244.573 120.973,243.906 120.5,242.5 Z"/>
    </g>
    <g>
        <path fill="#0e262f" d="M 146.5,242.5 C 146.833,242.5 147.167,242.5 147.5,242.5C 147.937,244.074 148.937,245.241 150.5,246C 149.833,246.333 149.167,246.667 148.5,247C 151.327,247.701 153.994,248.701 156.5,250C 154.595,250.826 154.261,251.993 155.5,253.5C 156.086,253.291 156.586,252.957 157,252.5C 160.4,253.54 163.9,254.206 167.5,254.5C 167.433,253.041 167.766,251.708 168.5,250.5C 169.873,250.657 171.207,250.49 172.5,250C 175.166,247.665 178.166,245.831 181.5,244.5C 181.833,245.167 182.167,245.833 182.5,246.5C 183.532,244.96 184.865,244.46 186.5,245C 187.76,246.814 187.76,248.647 186.5,250.5C 182.775,252.284 180.108,254.451 178.5,257C 179.756,257.417 180.423,258.25 180.5,259.5C 178.448,260.053 178.115,261.053 179.5,262.5C 180.5,262.833 181.167,263.5 181.5,264.5C 181.427,266.027 182.094,267.027 183.5,267.5C 184.26,269.985 185.26,269.985 186.5,267.5C 187.659,265.75 189.326,264.75 191.5,264.5C 193.062,264.733 194.395,265.4 195.5,266.5C 195.557,267.609 195.89,268.609 196.5,269.5C 193.778,271.297 192.445,273.631 192.5,276.5C 189.678,277.149 187.845,278.815 187,281.5C 186,280.167 185,280.167 184,281.5C 182.382,283.448 181.382,286.114 181,289.5C 178.965,287.088 177.965,287.755 178,291.5C 175.569,293.092 173.735,295.092 172.5,297.5C 171.22,298.931 169.553,299.598 167.5,299.5C 162.346,299.706 157.346,299.039 152.5,297.5C 150.973,297.573 149.973,296.906 149.5,295.5C 149.027,294.094 148.027,293.427 146.5,293.5C 144.674,291.853 143.34,289.853 142.5,287.5C 143.084,284.715 142.084,283.048 139.5,282.5C 136.669,281.921 134.336,280.588 132.5,278.5C 131.766,277.292 131.433,275.959 131.5,274.5C 129.102,274.741 127.102,274.074 125.5,272.5C 126.167,271.167 127.167,270.167 128.5,269.5C 129.906,269.027 130.573,268.027 130.5,266.5C 130.328,265.508 130.662,264.842 131.5,264.5C 132.833,264.5 134.167,264.5 135.5,264.5C 137.404,264.738 138.738,265.738 139.5,267.5C 140.74,269.985 141.74,269.985 142.5,267.5C 143.134,264.357 144.8,261.857 147.5,260C 146.584,259.722 145.918,259.222 145.5,258.5C 145.027,257.094 144.027,256.427 142.5,256.5C 141.29,256.068 140.29,255.401 139.5,254.5C 139.027,253.094 138.027,252.427 136.5,252.5C 136.027,251.094 135.027,250.427 133.5,250.5C 132.508,250.672 131.842,250.338 131.5,249.5C 131.167,248.5 130.5,247.833 129.5,247.5C 131.25,246.527 132.75,245.193 134,243.5C 134.667,244.167 135.333,244.833 136,245.5C 138.753,244.638 141.253,243.305 143.5,241.5C 144.417,242.127 145.417,242.461 146.5,242.5 Z M 164.5,267.5 C 171.056,270.282 172.889,274.948 170,281.5C 168.729,282.883 167.229,283.883 165.5,284.5C 160.623,285.225 156.956,283.558 154.5,279.5C 154.5,277.167 154.5,274.833 154.5,272.5C 157.019,269.241 160.352,267.574 164.5,267.5 Z"/>
    </g>
    <g>
        <path fill="#7f98a2" d="M 78.5,244.5 C 80.0269,244.427 81.0269,245.094 81.5,246.5C 79.9731,246.573 78.9731,245.906 78.5,244.5 Z"/>
    </g>
    <g>
        <path fill="#879da9" d="M 123.5,244.5 C 125.027,244.427 126.027,245.094 126.5,246.5C 124.973,246.573 123.973,245.906 123.5,244.5 Z"/>
    </g>
    <g>
        <path fill="#7f99a2" d="M 81.5,246.5 C 83.0269,246.427 84.0269,247.094 84.5,248.5C 82.9731,248.573 81.9731,247.906 81.5,246.5 Z"/>
    </g>
    <g>
        <path fill="#3e5b61" d="M 242.5,247.5 C 240.469,249.522 238.135,251.189 235.5,252.5C 235.5,251.5 235.5,250.5 235.5,249.5C 237.638,249.297 239.305,248.297 240.5,246.5C 241.183,246.863 241.85,247.196 242.5,247.5 Z"/>
    </g>
    <g>
        <path fill="#819fa4" d="M 128.5,247.5 C 128.833,247.5 129.167,247.5 129.5,247.5C 130.5,247.833 131.167,248.5 131.5,249.5C 129.973,249.573 128.973,248.906 128.5,247.5 Z"/>
    </g>
    <g>
        <path fill="#7a9399" d="M 84.5,248.5 C 86.0269,248.427 87.0269,249.094 87.5,250.5C 85.9731,250.573 84.9731,249.906 84.5,248.5 Z"/>
    </g>
    <g>
        <path fill="#2d444a" d="M 147.5,242.5 C 152.472,245.656 157.472,248.823 162.5,252C 164.689,252.322 166.689,251.822 168.5,250.5C 167.766,251.708 167.433,253.041 167.5,254.5C 163.9,254.206 160.4,253.54 157,252.5C 156.586,252.957 156.086,253.291 155.5,253.5C 154.261,251.993 154.595,250.826 156.5,250C 153.994,248.701 151.327,247.701 148.5,247C 149.167,246.667 149.833,246.333 150.5,246C 148.937,245.241 147.937,244.074 147.5,242.5 Z"/>
    </g>
    <g>
        <path fill="#768a96" d="M 87.5,250.5 C 89.0269,250.427 90.0269,251.094 90.5,252.5C 88.9731,252.573 87.9731,251.906 87.5,250.5 Z"/>
    </g>
    <g>
        <path fill="#6f878d" d="M 133.5,250.5 C 135.027,250.427 136.027,251.094 136.5,252.5C 134.973,252.573 133.973,251.906 133.5,250.5 Z"/>
    </g>
    <g>
        <path fill="#425b62" d="M 90.5,252.5 C 92.1172,253.038 93.7839,253.371 95.5,253.5C 98.375,255.249 99.7083,257.915 99.5,261.5C 98.4415,260.4 97.6082,259.066 97,257.5C 94.648,255.97 92.4813,254.303 90.5,252.5 Z"/>
    </g>
    <g>
        <path fill="#789598" d="M 136.5,252.5 C 138.027,252.427 139.027,253.094 139.5,254.5C 137.973,254.573 136.973,253.906 136.5,252.5 Z"/>
    </g>
    <g>
        <path fill="#758e93" d="M 142.5,256.5 C 144.027,256.427 145.027,257.094 145.5,258.5C 143.973,258.573 142.973,257.906 142.5,256.5 Z"/>
    </g>
    <g>
        <path fill="#9badb3" d="M 180.5,259.5 C 179.89,260.391 179.557,261.391 179.5,262.5C 178.115,261.053 178.448,260.053 180.5,259.5 Z"/>
    </g>
    <g>
        <path fill="#9eb2b8" d="M 99.5,261.5 C 100.833,262.167 101.833,263.167 102.5,264.5C 100.5,264.5 99.5,263.5 99.5,261.5 Z"/>
    </g>
    <g>
        <path fill="#94afb4" d="M 135.5,264.5 C 134.167,264.5 132.833,264.5 131.5,264.5C 132.665,261.978 133.998,261.978 135.5,264.5 Z"/>
    </g>
    <g>
        <path fill="#395357" d="M 235.5,252.5 C 233.324,254.515 230.824,256.182 228,257.5C 227.354,261.977 224.854,264.644 220.5,265.5C 222.877,262.582 224.877,259.415 226.5,256C 228.998,253.556 231.998,252.389 235.5,252.5 Z"/>
    </g>
    <g>
        <path fill="#819c9c" d="M 195.5,266.5 C 194.395,265.4 193.062,264.733 191.5,264.5C 191.783,263.711 192.283,263.044 193,262.5C 194.481,263.471 195.315,264.804 195.5,266.5 Z"/>
    </g>
    <g>
        <path fill="#869aa4" d="M 181.5,264.5 C 182.906,264.973 183.573,265.973 183.5,267.5C 182.094,267.027 181.427,266.027 181.5,264.5 Z"/>
    </g>
    <g>
        <path fill="#759198" d="M 195.5,266.5 C 197.262,267.262 198.262,268.596 198.5,270.5C 197.833,270.167 197.167,269.833 196.5,269.5C 195.89,268.609 195.557,267.609 195.5,266.5 Z"/>
    </g>
    <g>
        <path fill="#6f868d" d="M 130.5,266.5 C 130.573,268.027 129.906,269.027 128.5,269.5C 128.427,267.973 129.094,266.973 130.5,266.5 Z"/>
    </g>
    <g>
        <path fill="#768c98" d="M 139.5,267.5 C 140.5,267.5 141.5,267.5 142.5,267.5C 141.74,269.985 140.74,269.985 139.5,267.5 Z"/>
    </g>
    <g>
        <path fill="#435d66" d="M 164.5,267.5 C 160.352,267.574 157.019,269.241 154.5,272.5C 154.586,271.504 154.252,270.671 153.5,270C 154.701,269.097 155.535,267.931 156,266.5C 158.913,266.601 161.746,266.934 164.5,267.5 Z"/>
    </g>
    <g>
        <path fill="#7d949a" d="M 183.5,267.5 C 184.5,267.5 185.5,267.5 186.5,267.5C 185.26,269.985 184.26,269.985 183.5,267.5 Z"/>
    </g>
    <g>
        <path fill="#3d5b63" d="M 125.5,272.5 C 127.102,274.074 129.102,274.741 131.5,274.5C 131.433,275.959 131.766,277.292 132.5,278.5C 130.22,277.36 127.886,276.193 125.5,275C 124.226,274.023 124.226,273.189 125.5,272.5 Z"/>
    </g>
    <g>
        <path fill="#52686c" d="M 154.5,279.5 C 156.956,283.558 160.623,285.225 165.5,284.5C 161.946,285.652 158.28,285.485 154.5,284C 154.034,282.701 154.034,281.201 154.5,279.5 Z"/>
    </g>
    <g>
        <path fill="#72878d" d="M 139.5,282.5 C 142.084,283.048 143.084,284.715 142.5,287.5C 141.692,285.78 140.692,284.113 139.5,282.5 Z"/>
    </g>
    <g>
        <path fill="#304c52" d="M 196.5,269.5 C 197.167,269.833 197.833,270.167 198.5,270.5C 200.273,271.314 200.773,272.648 200,274.5C 195.418,277.876 190.585,280.876 185.5,283.5C 183.192,290.138 178.859,294.805 172.5,297.5C 173.735,295.092 175.569,293.092 178,291.5C 177.965,287.755 178.965,287.088 181,289.5C 181.382,286.114 182.382,283.448 184,281.5C 185,280.167 186,280.167 187,281.5C 187.845,278.815 189.678,277.149 192.5,276.5C 192.445,273.631 193.778,271.297 196.5,269.5 Z"/>
    </g>
    <g>
        <path fill="#6e858e" d="M 146.5,293.5 C 148.027,293.427 149.027,294.094 149.5,295.5C 147.973,295.573 146.973,294.906 146.5,293.5 Z"/>
    </g>
    <g>
        <path fill="#819294" d="M 152.5,297.5 C 157.346,299.039 162.346,299.706 167.5,299.5C 164.36,300.641 161.027,300.808 157.5,300C 155.509,299.626 153.842,298.793 152.5,297.5 Z"/>
    </g>
</svg>